# xmcd
# 
# Track frame offsets:
#     150
#     16375
#     36880
#     58650
#     83117
#     108945
#     125190
#     137197
#     157052
#     176885
#     199027
#     211125
#     227362
#     247955
#     269742
#     294227
#     320042
# 
# Disc length: 4483
# 
# Revision: 1
# Processed by: cddbd v1.5.2PL0 Copyright (c) Steve Scherf et al.
# Submitted via: BonkEnc v1.0.6
# 
DISCID=fb118111
DTITLE=Ze Marco e Adriano - Acustico
DYEAR=0
DGENRE=Country
TTITLE0=Verdadeiro Amor
TTITLE1=Deus dos Milagres
TTITLE2=Chega
TTITLE3=Foi Ele
TTITLE4=Historia de um Lar
TTITLE5=Deus Vivo
TTITLE6=Condomio do Ceu
TTITLE7=Coracao Carente
TTITLE8=Fonte Transbordante
TTITLE9=Pedacos
TTITLE10=Tem Alguem Aqui do Ceu
TTITLE11=Verdadeiro Amor Play
TTITLE12=Deus dos Milagres Play
TTITLE13=Chega Play
TTITLE14=Foi Ele Play
TTITLE15=Historia de um Lar Play
TTITLE16=Deus Vivo Play
EXTD=
EXTT0=
EXTT1=
EXTT2=
EXTT3=
EXTT4=
EXTT5=
EXTT6=
EXTT7=
EXTT8=
EXTT9=
EXTT10=
EXTT11=
EXTT12=
EXTT13=
EXTT14=
EXTT15=
EXTT16=
PLAYORDER=
